<?xml version="1.0" encoding="UTF-8"?> <svg xmlns="http://www.w3.org/2000/svg" id="Layer_2" data-name="Layer 2" viewBox="0 0 181.04 179.52"><defs><style> .cls-1 { fill: #1d2327; } .cls-1, .cls-2, .cls-3 { stroke-width: 0px; } .cls-2 { fill: #d0d2d3; } .cls-3 { fill: #fff; } </style></defs><g id="Layer_1-2" data-name="Layer 1"><path class="cls-2" d="m181.02,51.84c-.2-7.55-6.29-13.65-13.85-13.85v-.02H13.92v.02c-7.55.2-13.65,6.29-13.85,13.85h-.02v70.08h.02c.2,7.55,6.29,13.65,13.85,13.85v.02h153.26v-.02c7.55-.2,13.65-6.29,13.85-13.85h.02V51.84h-.02Zm-13.85.75h13.11v13.11h-13.11v-13.11Zm-.75,40.85h-13.11v-13.11h13.11v13.11ZM14.67,80.33h13.11v13.11h-13.11v-13.11Zm-.75-14.62H.8v-13.11h13.12v13.11Zm138.65,27.74h-13.11v-13.11h13.11v13.11Zm-124.03-13.11h13.11v13.11h-13.11v-13.11Zm124.03-14.62h-13.11v-13.11h13.11v13.11Zm-13.86,27.74h-13.11v-13.11h13.11v13.11Zm-96.3-13.11h13.11v13.11h-13.11v-13.11Zm82.44,13.11h-13.11v-13.11h13.11v13.11Zm-68.57.75h13.11v13.11h-13.11v-13.11Zm0-13.86h13.11v13.11h-13.11v-13.11Zm13.86,0h13.11v13.11h-13.11v-13.11Zm13.86,0h13.11v13.11h-13.11v-13.11Zm13.86,0h13.11v13.11h-13.11v-13.11Zm13.11-.75h-13.11v-13.11h13.11v13.11Zm-13.86,0h-13.11v-13.11h13.11v13.11Zm-13.86,0h-13.11v-13.11h13.11v13.11Zm-13.86,0h-13.11v-13.11h13.11v13.11Zm.75,14.61h13.11v13.11h-13.11v-13.11Zm13.86,0h13.11v13.11h-13.11v-13.11Zm13.86,0h13.11v13.11h-13.11v-13.11Zm13.87,0h13.11v13.11h-13.11v-13.11Zm0-14.61v-13.11h13.11v13.11h-13.11Zm-69.32-13.11h13.11v13.11h-13.11v-13.11Zm13.11,27.73v13.11h-13.11v-13.11h13.11Zm83.19,13.11h-13.11v-13.11h13.11v13.11Zm-13.11-27.73v-13.11h13.11v13.11h-13.11Zm13.11-13.87h-13.11v-13.11h13.11v13.11Zm-13.86,0h-13.11v-13.11h13.11v13.11Zm-13.87,0h-13.11v-13.11h13.11v13.11Zm-13.86,0h-13.11v-13.11h13.11v13.11Zm-13.86,0h-13.11v-13.11h13.11v13.11Zm-13.86,0h-13.11v-13.11h13.11v13.11Zm-13.86,0h-13.11v-13.11h13.11v13.11Zm-13.86,0h-13.11v-13.11h13.11v13.11Zm-13.86,0h-13.11v-13.11h13.11v13.11Zm.75.76h13.11v13.11h-13.11v-13.11Zm13.11,27.73v13.11h-13.11v-13.11h13.11Zm110.92,13.11h-13.11v-13.11h13.11v13.11Zm-13.11-27.73v-13.11h13.11v13.11h-13.11Zm13.86-26.99h13.11v13.11h-13.11v-13.11ZM14.67,66.46h13.11v13.11h-13.11v-13.11Zm13.11,27.73v13.11h-13.11v-13.11h13.11Zm-13.11,13.86h13.11v13.11h-13.11v-13.11Zm13.86,0h13.11v13.11h-13.11v-13.11Zm13.86,0h13.11v13.11h-13.11v-13.11Zm13.86,0h13.11v13.11h-13.11v-13.11Zm13.86,0h13.11v13.11h-13.11v-13.11Zm13.86,0h13.11v13.11h-13.11v-13.11Zm13.86,0h13.11v13.11h-13.11v-13.11Zm13.87,0h13.11v13.11h-13.11v-13.11Zm13.86,0h13.11v13.11h-13.11v-13.11Zm13.86,0h13.11v13.11h-13.11v-13.11Zm13.86,0h13.11v13.11h-13.11v-13.11Zm13.11-.75h-13.11v-13.11h13.11v13.11Zm-13.11-27.73v-13.11h13.11v13.11h-13.11Zm26.97-27.74h-13.11v-13.11c7.14.2,12.91,5.97,13.11,13.11Zm-26.97-13.11h13.11v13.11h-13.11v-13.11Zm-13.86,0h13.11v13.11h-13.11v-13.11Zm-13.86,0h13.11v13.11h-13.11v-13.11Zm-13.86,0h13.11v13.11h-13.11v-13.11Zm-13.87,0h13.11v13.11h-13.11v-13.11Zm-13.86,0h13.11v13.11h-13.11v-13.11Zm-13.86,0h13.11v13.11h-13.11v-13.11Zm-13.86,0h13.11v13.11h-13.11v-13.11Zm-13.86,0h13.11v13.11h-13.11v-13.11Zm-13.86,0h13.11v13.11h-13.11v-13.11Zm-13.86,0h13.11v13.11h-13.11v-13.11Zm-.75,0v13.11H.81c.2-7.14,5.97-12.91,13.11-13.11ZM.8,66.46h13.12v13.11H.8v-13.11Zm0,13.86h13.12v13.11H.8v-13.11Zm13.12,13.86v13.11H.8v-13.11h13.12ZM.8,108.05h13.12v13.11H.8v-13.11Zm0,13.86h13.11v13.11c-7.14-.2-12.91-5.97-13.11-13.11Zm26.97,13.11h-13.11v-13.11h13.11v13.11Zm13.86,0h-13.11v-13.11h13.11v13.11Zm13.86,0h-13.11v-13.11h13.11v13.11Zm13.86,0h-13.11v-13.11h13.11v13.11Zm13.86,0h-13.11v-13.11h13.11v13.11Zm13.86,0h-13.11v-13.11h13.11v13.11Zm13.86,0h-13.11v-13.11h13.11v13.11Zm13.87,0h-13.11v-13.11h13.11v13.11Zm13.86,0h-13.11v-13.11h13.11v13.11Zm13.86,0h-13.11v-13.11h13.11v13.11Zm13.86,0h-13.11v-13.11h13.11v13.11Zm.75,0v-13.11h13.11c-.2,7.14-5.97,12.91-13.11,13.11Zm0-13.86v-13.11h13.11v13.11h-13.11Zm13.11-13.86h-13.11v-13.11h13.11v13.11Zm0-13.86h-13.11v-13.11h13.11v13.11Zm-13.11-13.86v-13.11h13.11v13.11h-13.11Z"></path><g><path class="cls-1" d="m3.04,8.5h4.33l.89,2.67h2.18L6.48,0h-2.49L0,11.17h2.13l.91-2.67Zm1.09-3.2c.17-.51.34-1.05.52-1.61.17-.56.37-1.19.58-1.9.21.7.4,1.34.57,1.9.17.56.34,1.1.51,1.61l.52,1.57h-3.24l.54-1.57Z"></path><rect class="cls-1" x="11.78" width="1.98" height="11.17"></rect><rect class="cls-1" x="19.71" width="1.98" height="11.17"></rect><path class="cls-1" d="m32.77,3.1c-.58,0-1.09.14-1.54.41-.45.27-.77.64-.98,1.09-.17-.45-.45-.82-.86-1.09-.41-.27-.88-.41-1.42-.41-.5,0-.96.13-1.39.38-.42.25-.76.64-1,1.15v-1.37h-1.83v7.92h1.89v-4.72c0-.57.16-1,.47-1.3.31-.3.68-.45,1.11-.45s.76.13,1.03.39c.27.26.41.6.41,1.03v5.04h1.84v-4.86c0-.47.14-.86.42-1.16s.66-.45,1.14-.45c.41,0,.75.12,1.04.36.29.24.43.63.43,1.15v4.96h1.9v-5.22c0-.93-.25-1.64-.76-2.12s-1.14-.73-1.89-.73Z"></path><path class="cls-1" d="m41.73,6.28c-.29.07-.8.14-1.54.23-.54.06-1.05.16-1.53.31-.47.15-.85.39-1.15.72-.29.33-.44.79-.44,1.39,0,.79.26,1.38.78,1.78.52.4,1.17.6,1.96.6.65,0,1.15-.12,1.51-.36.36-.24.63-.53.83-.88h.03v1.12h1.86v-5.4c0-.82-.29-1.48-.87-1.96-.58-.48-1.38-.72-2.41-.72s-1.86.24-2.47.72c-.61.48-.94,1.11-.98,1.9h1.82c.03-.33.18-.61.47-.82s.66-.32,1.12-.32.8.11,1.06.32c.26.21.39.49.39.83v.06c0,.27-.14.44-.43.5Zm.44,1.1v.85c0,.46-.16.85-.48,1.17-.32.32-.79.48-1.41.48-.41,0-.74-.09-.99-.26s-.37-.42-.37-.73c0-.36.15-.62.45-.79.3-.17.65-.28,1.05-.34.39-.06.75-.12,1.08-.18.33-.06.55-.13.67-.21Z"></path><path class="cls-1" d="m47.27,10.7c.51.34,1.12.52,1.81.52.52,0,.98-.11,1.39-.33.41-.22.74-.56,1-1.02h0v1.21c0,.6-.16,1.07-.49,1.39s-.79.48-1.38.48c-.45,0-.82-.09-1.12-.27-.3-.18-.5-.44-.59-.78h-1.85c.1.77.46,1.38,1.08,1.83.62.45,1.44.67,2.49.67.71,0,1.35-.12,1.92-.35.56-.23,1.01-.6,1.33-1.11s.49-1.17.49-1.98V3.25h-1.87v1.18h0c-.26-.45-.6-.79-1.02-1.01-.42-.22-.88-.33-1.4-.33-.67,0-1.27.17-1.78.52s-.91.82-1.2,1.44-.43,1.32-.43,2.12.14,1.5.42,2.1c.28.61.68,1.08,1.2,1.43Zm.83-5.41c.36-.43.83-.65,1.42-.65.62,0,1.12.23,1.49.69.37.46.56,1.07.56,1.83s-.19,1.37-.56,1.83c-.37.46-.87.69-1.49.69-.58,0-1.06-.22-1.42-.65-.36-.43-.54-1.05-.54-1.86s.18-1.42.54-1.86Z"></path><path class="cls-1" d="m60.68,8.73c-.11.34-.32.61-.63.82-.31.21-.7.31-1.18.31-.63,0-1.13-.2-1.48-.59-.35-.4-.54-.91-.57-1.56h5.73v-.52c0-.81-.16-1.52-.47-2.14-.31-.62-.76-1.1-1.33-1.45-.57-.35-1.23-.52-1.99-.52s-1.39.18-1.96.54c-.57.36-1.02.85-1.34,1.47-.32.62-.48,1.34-.48,2.14s.16,1.51.47,2.13.76,1.11,1.34,1.47c.58.35,1.26.53,2.05.53.62,0,1.18-.11,1.69-.33.51-.22.93-.53,1.27-.93.34-.39.56-.85.66-1.36h-1.77Zm-3.23-3.66c.34-.33.79-.49,1.34-.49s.99.16,1.34.49c.35.33.55.77.61,1.34h-3.9c.06-.56.27-1.01.61-1.34Z"></path><path class="cls-1" d="m6.57,26.24c-.42.29-.98.44-1.68.44-.78,0-1.39-.19-1.83-.57-.44-.38-.66-.91-.67-1.58H.45c0,1.19.39,2.13,1.17,2.81.78.68,1.87,1.02,3.25,1.02.88,0,1.64-.14,2.29-.42.65-.28,1.14-.67,1.49-1.18.35-.51.52-1.11.52-1.81,0-.82-.27-1.48-.81-1.99-.54-.5-1.39-.88-2.55-1.14l-1.13-.26c-.73-.16-1.25-.36-1.56-.6s-.47-.54-.47-.91c0-.46.2-.83.59-1.12.39-.29.9-.43,1.52-.43.65,0,1.18.17,1.58.5.4.33.62.8.66,1.39h1.88c-.03-1.11-.41-1.98-1.14-2.62s-1.72-.95-2.97-.95c-.82,0-1.54.14-2.15.42-.62.28-1.1.67-1.44,1.17-.34.5-.51,1.08-.51,1.75,0,.78.26,1.43.79,1.93.53.5,1.35.88,2.47,1.13l1.2.27c.75.17,1.28.38,1.6.63.32.25.48.57.48.96,0,.49-.21.88-.64,1.17Z"></path><polygon class="cls-1" points="18.72 26.45 12.94 26.45 12.94 23.34 18.28 23.34 18.28 21.66 12.94 21.66 12.94 18.72 18.72 18.72 18.72 17 10.96 17 10.96 28.17 18.72 28.17 18.72 26.45"></polygon><path class="cls-1" d="m29.79,19.55c-.45-.86-1.07-1.54-1.85-2.01-.79-.48-1.67-.72-2.67-.72s-1.89.24-2.67.72c-.78.48-1.4,1.15-1.85,2.01-.45.86-.68,1.88-.68,3.04s.23,2.17.68,3.03c.45.86,1.07,1.53,1.85,2.01.78.48,1.67.72,2.67.72s1.88-.24,2.67-.71c.78-.47,1.4-1.14,1.85-2.01.45-.86.68-1.88.68-3.04s-.23-2.18-.68-3.04Zm-1.74,5.21c-.28.59-.66,1.04-1.14,1.35-.48.31-1.03.46-1.64.46s-1.16-.15-1.64-.46c-.48-.31-.87-.76-1.15-1.35s-.42-1.31-.42-2.16.14-1.58.42-2.17.67-1.05,1.15-1.36c.48-.31,1.03-.46,1.64-.46s1.16.16,1.64.46c.48.31.86.76,1.14,1.36.28.59.42,1.32.42,2.17s-.14,1.57-.42,2.16Z"></path><polygon class="cls-1" points="44.37 17 35.44 17 35.44 18.72 38.92 18.72 38.92 28.17 40.91 28.17 40.91 18.72 44.37 18.72 44.37 17"></polygon><path class="cls-1" d="m50.97,26.38c.33-.62.49-1.34.49-2.16s-.16-1.54-.49-2.16c-.33-.62-.78-1.11-1.37-1.46-.59-.35-1.27-.52-2.04-.52s-1.46.17-2.05.52c-.58.35-1.04.84-1.37,1.46-.33.62-.49,1.34-.49,2.16s.16,1.54.49,2.16.78,1.1,1.37,1.45c.58.35,1.27.52,2.05.52s1.46-.17,2.04-.52c.59-.35,1.04-.83,1.37-1.45Zm-1.97-.29c-.36.46-.84.68-1.45.68s-1.09-.23-1.45-.68c-.36-.45-.54-1.08-.54-1.87s.18-1.42.54-1.88c.36-.46.84-.69,1.45-.69s1.09.23,1.45.69c.36.46.54,1.08.54,1.87s-.18,1.41-.54,1.87Z"></path><path class="cls-1" d="m58.65,20.6c-.59-.35-1.27-.52-2.04-.52s-1.46.17-2.05.52c-.58.35-1.04.84-1.37,1.46-.33.62-.49,1.34-.49,2.16s.16,1.54.49,2.16.78,1.1,1.37,1.45c.58.35,1.27.52,2.05.52s1.46-.17,2.04-.52c.59-.35,1.04-.83,1.37-1.45s.49-1.34.49-2.16-.16-1.54-.49-2.16c-.33-.62-.78-1.11-1.37-1.46Zm-.6,5.49c-.36.46-.84.68-1.45.68s-1.09-.23-1.45-.68c-.36-.45-.54-1.08-.54-1.87s.18-1.42.54-1.88c.36-.46.84-.69,1.45-.69s1.09.23,1.45.69c.36.46.54,1.08.54,1.87s-.18,1.41-.54,1.87Z"></path><rect class="cls-1" x="62.13" y="17" width="1.89" height="11.17"></rect><polygon class="cls-1" points="73.46 28.17 70.05 23.67 73.26 20.25 70.99 20.25 67.91 23.46 67.89 23.46 67.89 17 66 17 66 28.17 67.89 28.17 67.89 25.52 68.61 24.78 71.2 28.17 73.46 28.17"></polygon><rect class="cls-1" x="74.54" y="20.25" width="1.89" height="7.92"></rect><path class="cls-1" d="m75.48,19.08c.32,0,.59-.1.8-.31s.32-.46.32-.77-.11-.56-.32-.76c-.21-.2-.48-.31-.8-.31s-.59.1-.81.31c-.21.21-.32.46-.32.76s.11.56.32.77.48.31.81.31Z"></path><path class="cls-1" d="m79.2,26.18c0,.68.19,1.18.58,1.51.39.33.98.49,1.79.49h1.14v-1.52h-.81c-.3,0-.51-.05-.63-.16-.11-.11-.17-.3-.17-.59v-4.12h1.61v-1.52h-1.61v-2.16h-1.9v2.16h-1.38v1.52h1.38v4.4Z"></path><path class="cls-1" d="m3.67,150.83c-.16.16-.37.23-.62.23s-.46-.07-.64-.2c-.18-.13-.33-.31-.45-.54-.12-.22-.2-.47-.26-.74-.06-.27-.08-.55-.08-.82,0-.26.02-.52.07-.79.05-.27.13-.52.24-.75.11-.23.26-.41.44-.55s.4-.21.67-.21.45.07.61.21c.16.14.3.33.42.57l.98-.47c-.09-.23-.22-.44-.4-.65s-.4-.38-.67-.51-.58-.2-.95-.2c-.46,0-.86.1-1.18.3s-.59.46-.79.79-.35.69-.45,1.08c-.09.39-.14.79-.14,1.18s.05.81.14,1.2c.09.4.24.76.44,1.08.2.32.47.58.79.77.33.19.73.29,1.2.29.35,0,.66-.06.92-.19s.49-.31.67-.54.33-.48.45-.77l-1-.38c-.11.24-.25.44-.42.6Z"></path><path class="cls-1" d="m10.57,148.81c.16-.18.28-.39.36-.62.08-.23.12-.46.12-.7,0-.34-.07-.66-.2-.96-.13-.3-.35-.54-.66-.73s-.73-.28-1.27-.28h-2.24v6.49h1.1v-2.54h.77l1.26,2.54h1.22l-1.31-2.67c.08-.03.16-.05.23-.08.24-.12.44-.27.6-.45Zm-.74-.85c-.06.14-.16.26-.3.35-.14.09-.34.13-.58.13h-1.16v-1.87h1.16c.26,0,.46.05.6.14s.24.22.29.36c.06.14.08.29.08.43,0,.16-.03.31-.09.45Z"></path><polygon class="cls-1" points="13.68 149.19 15.68 149.19 15.68 148.14 13.68 148.14 13.68 146.57 16.74 146.57 16.74 145.52 12.58 145.52 12.58 152.01 16.94 152.01 16.94 150.97 13.68 150.97 13.68 149.19"></polygon><path class="cls-1" d="m20.11,145.52l-2.12,6.49h1.19l.43-1.43h2.06l.43,1.43h1.19l-2.12-6.49h-1.04Zm-.21,4.06l.57-1.93s.03-.12.05-.2c.02-.08.04-.17.06-.26.02-.09.04-.18.05-.26.01.08.03.17.05.26.02.09.04.18.06.26.02.08.04.15.05.2l.57,1.93h-1.46Z"></path><polygon class="cls-1" points="24.08 146.58 25.97 146.58 25.97 152.01 27.07 152.01 27.07 146.58 28.96 146.58 28.96 145.52 24.08 145.52 24.08 146.58"></polygon><polygon class="cls-1" points="31.37 149.19 33.36 149.19 33.36 148.14 31.37 148.14 31.37 146.57 34.43 146.57 34.43 145.52 30.27 145.52 30.27 152.01 34.62 152.01 34.62 150.97 31.37 150.97 31.37 149.19"></polygon><path class="cls-1" d="m40.1,146.54c-.24-.31-.54-.56-.92-.74-.38-.18-.84-.28-1.38-.28h-1.63v6.49h1.59c.57,0,1.05-.1,1.44-.29.39-.19.7-.45.93-.77s.4-.67.5-1.05c.1-.38.15-.76.15-1.13,0-.4-.05-.8-.16-1.18-.11-.38-.28-.73-.52-1.04Zm-.56,3c-.06.26-.16.5-.29.71-.14.22-.32.39-.54.52-.23.13-.5.2-.83.2h-.6v-4.41h.7c.29,0,.55.06.76.19s.38.29.51.51c.13.21.23.45.29.71s.09.53.09.8c0,.26-.03.51-.09.77Z"></path><path class="cls-1" d="m51.37,148.59c.29-.13.5-.31.64-.55.14-.24.21-.5.21-.79s-.06-.57-.19-.83c-.13-.26-.34-.48-.64-.65s-.72-.25-1.24-.25h-2.19v6.49h2.33c.4,0,.74-.06,1.02-.17s.5-.26.67-.44c.17-.18.29-.39.36-.61.07-.23.11-.45.11-.68,0-.32-.09-.63-.26-.91-.17-.28-.44-.49-.8-.61Zm-2.32-2.05h1.11c.26,0,.46.04.6.12.14.08.23.18.28.3.05.12.07.24.07.37,0,.24-.09.44-.28.59-.18.15-.47.23-.85.23h-.94v-1.6Zm2.19,3.98c-.06.13-.16.25-.3.33-.14.09-.34.13-.6.13h-1.3v-1.84h1.03c.34,0,.6.05.78.14s.3.21.37.36c.07.15.1.3.1.46,0,.14-.03.27-.09.41Z"></path><polygon class="cls-1" points="56 148.29 54.77 145.52 53.54 145.52 55.45 149.47 55.45 152.01 56.55 152.01 56.55 149.47 58.45 145.52 57.24 145.52 56 148.29"></polygon><polygon class="cls-1" points="113.99 148.2 113.99 145.42 102.43 145.42 102.43 161.56 105.71 161.56 105.71 154.88 112.73 154.88 112.73 152.08 105.71 152.08 105.71 148.2 113.99 148.2"></polygon><rect class="cls-1" x="115.17" y="145.42" width="3.07" height="2.75"></rect><rect class="cls-1" x="115.17" y="149.98" width="3.07" height="11.58"></rect><path class="cls-1" d="m130.29,161.56v-7.56c0-2.53-1.6-4.33-4-4.33-1.58,0-2.64.65-3.43,1.9h-.07v-1.58h-3v11.58h3.07v-6.57c0-1.58.99-2.66,2.35-2.66s2.01.88,2.01,2.12v7.11h3.07Z"></path><path class="cls-1" d="m136.29,160.86c1.47,0,2.35-.59,3.03-1.35h.07v1.26c0,1.58-.84,2.42-2.57,2.42-1.42,0-2.08-.56-2.33-1.29h-3.05c.32,2.26,2.26,3.61,5.42,3.61,1.72,0,3.21-.41,4.18-1.31.86-.79,1.38-1.9,1.38-3.52v-10.7h-2.96v1.22h-.04c-.7-.97-1.76-1.54-3.21-1.54-2.94,0-5.01,2.21-5.01,5.67s2.53,5.53,5.1,5.53Zm.5-8.74c1.85,0,2.75,1.44,2.75,3.14s-.79,3.14-2.73,3.14c-1.58,0-2.62-1.15-2.62-3.12s1.04-3.16,2.6-3.16Z"></path><path class="cls-1" d="m149.41,161.9c2.98,0,4.81-1.74,5.24-3.79h-3.02c-.34.88-1.04,1.42-2.24,1.42-1.74,0-2.73-1.11-2.96-2.89h8.4c0-4.13-1.99-6.98-5.71-6.98-3.39,0-5.71,2.66-5.71,6.1s2.17,6.14,6,6.14Zm-.25-9.87c1.4,0,2.37,1.02,2.46,2.48h-5.15c.27-1.51,1.06-2.48,2.69-2.48Z"></path><path class="cls-1" d="m158.89,155.92c0-2.44,1.44-3.5,3.45-3.3h.07v-2.69c-.18-.07-.38-.09-.72-.09-1.35,0-2.14.68-2.84,1.99h-.07v-1.85h-2.96v11.58h3.07v-5.64Z"></path><path class="cls-1" d="m167.96,159.74c-1.38,0-2.32-.59-2.53-1.92h-2.84c.18,2.46,2.05,4.09,5.42,4.09,2.89,0,4.88-1.4,4.88-3.72,0-2.71-2.14-3.25-4.09-3.66-1.65-.34-3.18-.43-3.18-1.42,0-.84.79-1.29,1.99-1.29,1.31,0,2.1.45,2.24,1.69h2.78c-.23-2.33-1.92-3.84-4.97-3.84-2.64,0-4.72,1.2-4.72,3.7s2.03,3.09,4.11,3.5c1.58.32,3.05.43,3.05,1.54,0,.81-.77,1.33-2.12,1.33Z"></path><path class="cls-1" d="m109.5,176.84c-2.71,0-4.42-2.37-4.42-5.67s1.42-5.69,4.4-5.69c1.9,0,3.12,1.06,3.41,2.69h3.25c-.34-3.07-2.69-5.44-6.66-5.44-4.76,0-7.74,3.66-7.74,8.44s3.23,8.35,7.77,8.35c2.24,0,3.79-.68,4.9-1.72,1.08-1.02,1.69-2.39,1.78-3.82h-3.21c-.2,1.69-1.56,2.84-3.48,2.84Z"></path><path class="cls-1" d="m123.79,167.56c-.18-.07-.38-.09-.72-.09-1.35,0-2.14.68-2.84,1.99h-.07v-1.85h-2.96v11.58h3.07v-5.64c0-2.44,1.44-3.5,3.45-3.3h.07v-2.69Z"></path><path class="cls-1" d="m129.84,167.29c-3.59,0-6.05,2.66-6.05,6.12s2.46,6.12,6.05,6.12,6.05-2.66,6.05-6.12-2.46-6.12-6.05-6.12Zm0,9.89c-1.9,0-2.93-1.51-2.93-3.77s1.04-3.79,2.93-3.79,2.94,1.54,2.94,3.79-1.06,3.77-2.94,3.77Z"></path><path class="cls-1" d="m142.36,172.14c-1.65-.34-3.18-.43-3.18-1.42,0-.84.79-1.29,1.99-1.29,1.31,0,2.1.45,2.24,1.69h2.78c-.23-2.33-1.92-3.84-4.97-3.84-2.64,0-4.72,1.2-4.72,3.7s2.03,3.09,4.11,3.5c1.58.32,3.05.43,3.05,1.54,0,.81-.77,1.33-2.12,1.33s-2.32-.59-2.53-1.92h-2.84c.18,2.46,2.05,4.09,5.42,4.09,2.89,0,4.88-1.4,4.88-3.72,0-2.71-2.14-3.25-4.09-3.66Z"></path><path class="cls-1" d="m152.88,172.14c-1.65-.34-3.18-.43-3.18-1.42,0-.84.79-1.29,1.99-1.29,1.31,0,2.1.45,2.24,1.69h2.78c-.23-2.33-1.92-3.84-4.97-3.84-2.64,0-4.72,1.2-4.72,3.7s2.03,3.09,4.11,3.5c1.58.32,3.05.43,3.05,1.54,0,.81-.77,1.33-2.12,1.33s-2.33-.59-2.53-1.92h-2.84c.18,2.46,2.05,4.09,5.42,4.09,2.89,0,4.88-1.4,4.88-3.72,0-2.71-2.14-3.25-4.09-3.66Z"></path><path class="cls-1" d="m163.18,167.29c-3.39,0-5.71,2.66-5.71,6.1s2.17,6.14,6.01,6.14c2.98,0,4.81-1.74,5.24-3.79h-3.02c-.34.88-1.04,1.42-2.24,1.42-1.74,0-2.73-1.11-2.96-2.89h8.4c0-4.13-1.99-6.98-5.71-6.98Zm-2.64,4.85c.27-1.51,1.06-2.48,2.69-2.48,1.4,0,2.37,1.02,2.46,2.48h-5.15Z"></path><path class="cls-1" d="m177.6,169h-.07c-.63-.97-1.65-1.72-3.27-1.72-2.89,0-4.94,2.51-4.94,6.12s1.99,6.12,4.9,6.12c1.62,0,2.78-.75,3.45-1.85h.05v1.51h2.96v-16.14h-3.07v5.96Zm-2.71,7.95c-1.58,0-2.46-1.31-2.46-3.54s.86-3.63,2.55-3.63c1.96,0,2.69,1.49,2.69,3.7s-.95,3.48-2.78,3.48Z"></path><path class="cls-1" d="m91.29,165.39v-.42c0-.81-.66-1.47-1.47-1.47s-1.47.66-1.47,1.47v3.98c.04.81.72,1.44,1.53,1.41.76-.03,1.38-.65,1.41-1.41v-.23c-.91-.7-1.09-1.97-.43-2.89.12-.17.27-.31.43-.44Z"></path><path class="cls-1" d="m93.73,165.34l.27.18-.76-1.98-.7,1.42c.43,0,.85.13,1.2.38Z"></path><path class="cls-1" d="m98.15,156.88l-.04-.02c-.72-.34-1.58-.03-1.93.68l-.36.73,1.44,3.68,1.55-3.11c.36-.73.06-1.61-.66-1.98Z"></path><path class="cls-1" d="m98.5,168.61v-1.14c0-.32-.06-.64-.18-.93l-3.53-9.06c-.29-.75-1.14-1.13-1.9-.84-.75.29-1.13,1.14-.84,1.9l2.91,7.65,3.54,2.43Z"></path><path class="cls-1" d="m86.14,164.65c-.76.04-1.38.66-1.4,1.42v2.88c0,.8.67,1.46,1.47,1.46.8,0,1.46-.66,1.47-1.46v-2.91c-.04-.78-.69-1.4-1.47-1.4-.02,0-.05,0-.07,0Z"></path><path class="cls-1" d="m99.13,169.85l-5.78-3.96c-.63-.44-1.5-.29-1.94.33-.45.63-.33,1.49.29,1.96l3.39,2.58c.22.17.34.42.35.69,0,.27-.11.52-.31.7-.8.67-2.64,2.47-2.48,4.56v.08s-.66.05-.66.05v-.08c-.19-2.31,1.61-4.21,2.7-5.13.05-.04.07-.1.07-.16,0-.07-.03-.14-.09-.18l-2.73-2.07c-.06.51-.31.98-.69,1.32-.43.38-.97.58-1.55.55-.69-.04-1.33-.41-1.69-.99-.28.44-.7.75-1.2.9-.55.16-1.13.1-1.63-.17-.17-.09-.32-.2-.45-.33v.77c0,2.16.92,4.23,2.57,5.83,1.58,1.54,3.66,2.42,5.68,2.42,3.96,0,6.74-2.32,6.74-5.65v-2.87c0-.46-.22-.89-.59-1.15Z"></path><polygon class="cls-1" points="174.49 153.53 175.57 153.53 175.57 150.76 176.62 150.76 176.62 149.85 173.45 149.85 173.45 150.76 174.49 150.76 174.49 153.53"></polygon><polygon class="cls-1" points="179.26 149.85 178.69 151.91 178.68 151.91 178.12 149.85 176.72 149.85 176.72 153.53 177.66 153.53 177.66 151.22 177.67 151.22 178.29 153.53 179.07 153.53 179.69 151.22 179.7 151.22 179.7 153.53 180.67 153.53 180.67 149.85 179.26 149.85"></polygon><path class="cls-1" d="m1.82,176.84c-.65,0-1.17.53-1.17,1.17s.53,1.17,1.17,1.17,1.17-.53,1.17-1.17-.53-1.17-1.17-1.17Z"></path><path class="cls-1" d="m7.84,176.84c-.65,0-1.17.53-1.17,1.17s.53,1.17,1.17,1.17,1.17-.53,1.17-1.17-.53-1.17-1.17-1.17Z"></path><path class="cls-1" d="m13.85,176.84c-.65,0-1.17.53-1.17,1.17s.53,1.17,1.17,1.17,1.17-.53,1.17-1.17-.53-1.17-1.17-1.17Z"></path><path class="cls-1" d="m25.88,176.84c-.65,0-1.17.53-1.17,1.17s.53,1.17,1.17,1.17,1.17-.53,1.17-1.17-.53-1.17-1.17-1.17Z"></path><rect class="cls-3" x="107.17" y="65.88" width="18.41" height="9.22" rx="4.61" ry="4.61"></rect><g><path class="cls-1" d="m113.09,68.65c-.22-.11-.48-.16-.78-.16h-1.58v4.01h.83v-1.38h.74c.3,0,.56-.05.78-.16.22-.11.39-.26.51-.46.12-.2.18-.43.18-.7s-.06-.5-.18-.7c-.12-.2-.29-.35-.51-.46Zm-.31,1.61c-.13.11-.3.17-.52.17h-.7v-1.24h.7c.22,0,.39.06.52.17.13.11.19.26.19.45s-.06.34-.19.45Z"></path><path class="cls-1" d="m117.64,70.49c.13-.19.19-.42.19-.69s-.06-.5-.18-.7c-.12-.2-.29-.35-.51-.46-.22-.11-.48-.16-.78-.16h-1.6v4.01h.83v-1.4h.73l.71,1.4h.89l-.8-1.56c.22-.1.4-.25.53-.45Zm-.81-.23c-.13.11-.3.17-.52.17h-.73v-1.25h.72c.22,0,.39.06.52.17.13.11.19.27.19.46s-.06.34-.19.46Z"></path><path class="cls-1" d="m121.61,68.67c-.28-.17-.61-.25-.97-.25s-.68.08-.97.25c-.29.17-.51.41-.68.72-.17.31-.25.68-.25,1.1s.08.79.25,1.1c.17.31.39.55.68.72.29.17.61.25.97.25s.68-.08.97-.25.51-.41.68-.71c.17-.31.25-.68.25-1.1s-.08-.8-.25-1.1c-.17-.31-.39-.55-.68-.72Zm-.21,2.81c-.2.23-.45.35-.76.35s-.56-.12-.76-.35c-.2-.23-.3-.56-.3-.99s.1-.76.3-.99c.2-.23.45-.35.76-.35s.56.12.76.35c.2.23.3.56.3.99s-.1.75-.3.99Z"></path><path class="cls-1" d="m121.45,65.74h-10.03c-2.62,0-4.75,2.13-4.75,4.75s2.13,4.75,4.75,4.75h10.03c2.62,0,4.75-2.13,4.75-4.75s-2.13-4.75-4.75-4.75Zm0,8.68h-10.03c-2.17,0-3.93-1.76-3.93-3.93s1.77-3.93,3.93-3.93h10.03c2.17,0,3.93,1.76,3.93,3.93s-1.77,3.93-3.93,3.93Z"></path><path class="cls-1" d="m98.26,82.16c-2.42.45-4.21-2.2-2.9-4.28l4.17-6.62-8.86-5.57-23.14,36.78,8.86,5.57,11.6-18.45c1.37-2.18,4.7-1.54,5.16.99l3.22,17.46,10.29-1.9-4.56-24.69-3.85.71Z"></path></g></g></g></svg> 